<svg xmlns="http://www.w3.org/2000/svg" viewBox="0 0 155.9 155.9"><g id="Capa_2" data-name="Capa 2"><g id="Capa_1-2" data-name="Capa 1"><g id="Capa_2-2" data-name="Capa 2"><g id="Capa_1-2-2" data-name="Capa 1-2"><g id="Capa_2-2-2" data-name="Capa 2-2"><g id="Capa_1-2-2-2" data-name="Capa 1-2-2"><circle cx="77.95" cy="77.95" r="77.95" style="fill:#f3f3f3"/><polygon points="78.21 6.21 140.76 42.21 140.76 113.7 78.21 149.7 15.14 113.7 15.14 42.21 78.21 6.21" style="fill:none;stroke:#e4151f;stroke-miterlimit:10;stroke-width:2px"/><path d="M15.14,42.21,30.7,82.49a.24.24,0,0,0,.06.11l47,66.5a.51.51,0,0,0,.71.13h0a.8.8,0,0,0,.13-.13L100.29,119a.47.47,0,0,1,.35-.21l39.47-5a.52.52,0,0,0,.45-.58v-.12l-20.1-53.43a.53.53,0,0,1,.16-.58l20.14-16.87" style="fill:none;stroke:#e4151f;stroke-miterlimit:10;stroke-width:2px"/><path d="M100.42,118.8l19.92-59.49L31.87,82.19a.46.46,0,0,0-.34.55.47.47,0,0,0,.24.31Z" style="fill:none;stroke:#e4151f;stroke-miterlimit:10;stroke-width:2px"/><path d="M120.34,59.31,78.86,7a.73.73,0,0,0-1-.12.77.77,0,0,0-.17.19l-47,75.48L15.14,113.7" style="fill:none;stroke:#e4151f;stroke-miterlimit:10;stroke-width:2px"/></g></g></g></g></g></g></svg>