<svg xmlns="http://www.w3.org/2000/svg" viewBox="0 0 420.42 155.91"><g id="Capa_2" data-name="Capa 2"><g id="Capa_1-2" data-name="Capa 1"><g id="Capa_2-2" data-name="Capa 2"><g id="Capa_1-2-2" data-name="Capa 1-2"><g id="Capa_2-2-2" data-name="Capa 2-2"><g id="Capa_1-2-2-2" data-name="Capa 1-2-2"><rect width="420.42" height="155.91" style="fill:#f3f3f3"/><polygon points="73.1 6.21 135.65 42.21 135.65 113.7 73.1 149.7 10.03 113.7 10.03 42.21 73.1 6.21" style="fill:none;stroke:#e4151f;stroke-miterlimit:10;stroke-width:2px"/><path d="M10,42.21,25.58,82.49l.06.11,47,66.5a.51.51,0,0,0,.71.13h0a.8.8,0,0,0,.13-.13L95.18,119a.47.47,0,0,1,.35-.21l39.47-5a.52.52,0,0,0,.45-.58v-.12l-20.1-53.43a.53.53,0,0,1,.16-.58l20.14-16.87" style="fill:none;stroke:#e4151f;stroke-miterlimit:10;stroke-width:2px"/><path d="M95.31,118.8l19.91-59.49L26.76,82.19a.46.46,0,0,0-.34.55.47.47,0,0,0,.24.31Z" style="fill:none;stroke:#e4151f;stroke-miterlimit:10;stroke-width:2px"/><path d="M115.22,59.31,73.75,7a.73.73,0,0,0-1-.12.77.77,0,0,0-.17.19l-47,75.48L10,113.7" style="fill:none;stroke:#e4151f;stroke-miterlimit:10;stroke-width:2px"/><g style="isolation:isolate"><path d="M151.59,69.78h8.5v22.7q0,10.5,9.22,10.5a8.11,8.11,0,0,0,6.5-2.81,11.49,11.49,0,0,0,2.39-7.69V69.78h8.4V93.85a16.76,16.76,0,0,1-4.93,12.45,17.14,17.14,0,0,1-12.6,4.88q-7.81,0-12.65-4.88t-4.83-12.74Z" style="fill:#1d1d1b"/><path d="M195.29,110.06V69.78h8.3v6.69a33.92,33.92,0,0,1,6.64-5.94,12.23,12.23,0,0,1,6.64-1.88,13.23,13.23,0,0,1,9.35,3.62A11.44,11.44,0,0,1,230.1,81v29.1h-8.49V83.45A7.38,7.38,0,0,0,219.48,78a7.26,7.26,0,0,0-5.39-2.15,9.36,9.36,0,0,0-7.32,3.59,12.82,12.82,0,0,0-3.08,8.67v21.92Z" style="fill:#1d1d1b"/><path d="M239.19,69.78h8.49v22.7q0,10.5,9.23,10.5a8.11,8.11,0,0,0,6.5-2.81,11.49,11.49,0,0,0,2.39-7.69V69.78h8.4V93.85a16.77,16.77,0,0,1-4.94,12.45,17.1,17.1,0,0,1-12.59,4.88q-7.81,0-12.65-4.88t-4.83-12.74Z" style="fill:#1d1d1b"/><path d="M285.77,46.68h8.4V77.74q5.41-9.09,15.52-9.09a17.83,17.83,0,0,1,13.55,6.25A21.21,21.21,0,0,1,329,89.75a22,22,0,0,1-5.64,15q-5.64,6.42-13.16,6.42a17.64,17.64,0,0,1-9.18-2.59,18.59,18.59,0,0,1-6.83-7v8.5h-8.4ZM320,89.75a12.84,12.84,0,0,0-4-9.45,13.07,13.07,0,0,0-9.57-3.93,13.39,13.39,0,0,0-9.4,22.92,13.49,13.49,0,0,0,9.79,3.88,12.52,12.52,0,0,0,9.26-4A13.07,13.07,0,0,0,320,89.75Z" style="fill:#1d1d1b"/><path d="M379.86,91.55H345.49q1.11,6.21,5.1,9.06a14.5,14.5,0,0,0,8.66,2.86,15,15,0,0,0,12.11-6l6.21,4.69a22.45,22.45,0,0,1-18.71,9,20.24,20.24,0,0,1-15-6.15,20.9,20.9,0,0,1-6.06-15.28,20.48,20.48,0,0,1,6.13-14.82,20.77,20.77,0,0,1,29.86.1Q380,81.39,379.86,91.55Zm-33.5-6.78H371q-4.1-8.31-12.11-8.3Q350.13,76.47,346.36,84.77Z" style="fill:#1d1d1b"/><path d="M399.1,69.78v8.3a25.79,25.79,0,0,1,5.54-7.2,10.74,10.74,0,0,1,7.06-2.23,15.55,15.55,0,0,1,3.51.59l-2.59,8.5a20.52,20.52,0,0,0-3.22-.49,9.63,9.63,0,0,0-7.2,3,10.34,10.34,0,0,0-2.91,7.5v22.31H390.8V69.78Z" style="fill:#1d1d1b"/></g></g></g></g></g></g></g></svg>