<svg xmlns="http://www.w3.org/2000/svg" viewBox="0 0 195.08 216.45"><g id="Capa_2" data-name="Capa 2"><g id="Capa_1-2" data-name="Capa 1"><g id="Capa_2-2" data-name="Capa 2"><g id="Capa_1-2-2" data-name="Capa 1-2"><g id="Capa_2-2-2" data-name="Capa 2-2"><g id="Capa_1-2-2-2" data-name="Capa 1-2-2"><polygon points="92.25 1.15 154.8 37.15 154.8 108.64 92.25 144.64 29.19 108.64 29.19 37.15 92.25 1.15" style="fill:none;stroke:#e4151f;stroke-miterlimit:10;stroke-width:2px"/><path d="M32.3,37.15,47.85,77.43a.23.23,0,0,0,.06.12l47,66.5a.51.51,0,0,0,.71.13h0a.53.53,0,0,0,.13-.13l21.66-30.12a.58.58,0,0,1,.36-.21l39.46-5a.51.51,0,0,0,.45-.56.28.28,0,0,0,0-.13l-20-53.43a.51.51,0,0,1,.15-.58L158,37.15" transform="translate(-3.11)" style="fill:none;stroke:#e4151f;stroke-miterlimit:10;stroke-width:2px"/><path d="M117.57,113.75l19.92-59.49L49,77.13a.46.46,0,0,0-.34.56h0a.45.45,0,0,0,.24.3Z" transform="translate(-3.11)" style="fill:none;stroke:#e4151f;stroke-miterlimit:10;stroke-width:2px"/><path d="M137.49,54.26,96,2a.75.75,0,0,0-1-.11.69.69,0,0,0-.16.18l-47,75.42L32.3,108.64" transform="translate(-3.11)" style="fill:none;stroke:#e4151f;stroke-miterlimit:10;stroke-width:2px"/><g style="isolation:isolate"><path d="M3.11,185.81H9.39v16.81q0,7.75,6.83,7.76A6,6,0,0,0,21,208.31a8.52,8.52,0,0,0,1.77-5.69V185.81H29v17.82a12.42,12.42,0,0,1-3.64,9.21A12.72,12.72,0,0,1,16,216.45a12.6,12.6,0,0,1-9.36-3.61,12.84,12.84,0,0,1-3.57-9.43Z" transform="translate(-3.11)" style="fill:#1d1d1b"/><path d="M35.45,215.62V185.81h6.14v4.95a25.13,25.13,0,0,1,4.91-4.39A9.09,9.09,0,0,1,51.42,185a9.79,9.79,0,0,1,6.92,2.68,8.48,8.48,0,0,1,2.87,6.43v21.53H54.92V195.93a5.46,5.46,0,0,0-1.57-4,5.38,5.38,0,0,0-4-1.59A6.9,6.9,0,0,0,43.94,193a9.49,9.49,0,0,0-2.28,6.41v16.22Z" transform="translate(-3.11)" style="fill:#1d1d1b"/><path d="M67.93,185.81h6.29v16.81q0,7.75,6.83,7.76a6,6,0,0,0,4.8-2.07,8.52,8.52,0,0,0,1.77-5.69V185.81h6.22v17.82a12.42,12.42,0,0,1-3.65,9.21,12.69,12.69,0,0,1-9.32,3.61,12.57,12.57,0,0,1-9.36-3.61,12.8,12.8,0,0,1-3.58-9.43Z" transform="translate(-3.11)" style="fill:#1d1d1b"/><path d="M102.4,168.72h6.22v23q4-6.72,11.49-6.72a13.16,13.16,0,0,1,10,4.63,15.68,15.68,0,0,1,4.25,11,16.3,16.3,0,0,1-4.17,11.11,12.63,12.63,0,0,1-9.74,4.75,13.06,13.06,0,0,1-6.8-1.91,13.78,13.78,0,0,1-5-5.2v6.28H102.4Zm25.33,31.87a9.51,9.51,0,0,0-2.93-7,9.67,9.67,0,0,0-7.08-2.91,9.91,9.91,0,0,0-7,17,10,10,0,0,0,7.24,2.87,9.28,9.28,0,0,0,6.85-2.93A9.67,9.67,0,0,0,127.73,200.59Z" transform="translate(-3.11)" style="fill:#1d1d1b"/><path d="M172,201.93H146.59a10,10,0,0,0,3.78,6.7,10.76,10.76,0,0,0,6.41,2.12,11.12,11.12,0,0,0,9-4.45l4.59,3.47a16.59,16.59,0,0,1-13.84,6.68,15,15,0,0,1-11.13-4.55,15.5,15.5,0,0,1-4.48-11.31,15.18,15.18,0,0,1,4.54-11,15.37,15.37,0,0,1,22.09.08Q172.1,194.41,172,201.93Zm-24.79-5h18.21q-3-6.15-9-6.15Q150,190.76,147.24,196.91Z" transform="translate(-3.11)" style="fill:#1d1d1b"/><path d="M186.26,185.81V192a19,19,0,0,1,4.11-5.33,7.92,7.92,0,0,1,5.22-1.65,11.47,11.47,0,0,1,2.6.44l-1.92,6.28a15.7,15.7,0,0,0-2.38-.36,7.12,7.12,0,0,0-5.33,2.22,7.63,7.63,0,0,0-2.15,5.55v16.51h-6.29V185.81Z" transform="translate(-3.11)" style="fill:#1d1d1b"/></g></g></g></g></g></g></g></svg>