<svg xmlns="http://www.w3.org/2000/svg" viewBox="0 0 226.77 226.77"><g id="Capa_2" data-name="Capa 2"><g id="Capa_1-2" data-name="Capa 1"><g id="Capa_2-2" data-name="Capa 2"><g id="Capa_1-2-2" data-name="Capa 1-2"><g id="Capa_2-2-2" data-name="Capa 2-2"><g id="Capa_1-2-2-2" data-name="Capa 1-2-2"><rect width="226.77" height="226.77" style="fill:#f3f3f3"/><polygon points="113.64 4.37 176.19 40.37 176.19 111.85 113.64 147.85 50.58 111.85 50.58 40.37 113.64 4.37" style="fill:none;stroke:#e4151f;stroke-miterlimit:10;stroke-width:2px"/><path d="M50.58,40.36,66.13,80.65a.24.24,0,0,0,.06.11l47,66.5a.51.51,0,0,0,.71.13h0a.8.8,0,0,0,.13-.13l21.66-30.12a.58.58,0,0,1,.36-.21l39.46-5a.52.52,0,0,0,.45-.58v-.12L156,57.81a.5.5,0,0,1,.15-.57l20.14-16.88" style="fill:none;stroke:#e4151f;stroke-miterlimit:10;stroke-width:2px"/><path d="M135.85,117l19.92-59.49L67.3,80.34a.47.47,0,0,0-.32.58.44.44,0,0,0,.22.28Z" style="fill:none;stroke:#e4151f;stroke-miterlimit:10;stroke-width:2px"/><path d="M155.77,57.47,114.29,5.19a.72.72,0,0,0-1-.14.86.86,0,0,0-.18.2l-47,75.45L50.58,111.85" style="fill:none;stroke:#e4151f;stroke-miterlimit:10;stroke-width:2px"/><g style="isolation:isolate"><path d="M17,189H23.3v16.8q0,7.77,6.83,7.77a6,6,0,0,0,4.8-2.08,8.48,8.48,0,0,0,1.77-5.69V189h6.22v17.81a12.43,12.43,0,0,1-3.65,9.22A12.69,12.69,0,0,1,30,219.66a12.57,12.57,0,0,1-9.36-3.61A12.8,12.8,0,0,1,17,206.62Z" style="fill:#1d1d1b"/><path d="M49.35,218.83V189h6.14V194a25.14,25.14,0,0,1,4.92-4.39,9,9,0,0,1,4.91-1.39,9.81,9.81,0,0,1,6.92,2.67,8.51,8.51,0,0,1,2.87,6.44v21.53H68.82V199.14a5.45,5.45,0,0,0-1.57-4,5.36,5.36,0,0,0-4-1.59,6.92,6.92,0,0,0-5.42,2.65,9.52,9.52,0,0,0-2.28,6.42v16.22Z" style="fill:#1d1d1b"/><path d="M81.83,189h6.29v16.8q0,7.77,6.83,7.77a6,6,0,0,0,4.8-2.08,8.48,8.48,0,0,0,1.77-5.69V189h6.22v17.81a12.43,12.43,0,0,1-3.65,9.22,12.68,12.68,0,0,1-9.32,3.61,12.57,12.57,0,0,1-9.36-3.61,12.8,12.8,0,0,1-3.58-9.43Z" style="fill:#1d1d1b"/><path d="M116.3,171.93h6.22v23q4-6.72,11.49-6.72a13.2,13.2,0,0,1,10,4.62,15.72,15.72,0,0,1,4.24,11,16.32,16.32,0,0,1-4.17,11.11,12.61,12.61,0,0,1-9.74,4.75,13.12,13.12,0,0,1-6.79-1.91,13.76,13.76,0,0,1-5.06-5.21v6.29H116.3Zm25.33,31.87a9.5,9.5,0,0,0-2.92-7,9.71,9.71,0,0,0-7.09-2.91,9.91,9.91,0,0,0-7,17,10,10,0,0,0,7.24,2.88,9.28,9.28,0,0,0,6.85-2.93A9.67,9.67,0,0,0,141.63,203.8Z" style="fill:#1d1d1b"/><path d="M185.93,205.14H160.49a10,10,0,0,0,3.78,6.7,10.75,10.75,0,0,0,6.41,2.11,11.1,11.1,0,0,0,9-4.44l4.59,3.47a16.6,16.6,0,0,1-13.84,6.68,15,15,0,0,1-11.12-4.55,15.49,15.49,0,0,1-4.48-11.31,15.19,15.19,0,0,1,4.53-11,15.4,15.4,0,0,1,22.1.07A16.61,16.61,0,0,1,185.93,205.14Zm-24.79-5h18.22q-3-6.13-9-6.14Q163.93,194,161.14,200.11Z" style="fill:#1d1d1b"/><path d="M200.17,189v6.14a19.1,19.1,0,0,1,4.1-5.33,8,8,0,0,1,5.22-1.64,11.33,11.33,0,0,1,2.6.43l-1.91,6.29a15.76,15.76,0,0,0-2.39-.36,7.13,7.13,0,0,0-5.33,2.22,7.67,7.67,0,0,0-2.15,5.55v16.51H194V189Z" style="fill:#1d1d1b"/></g></g></g></g></g></g></g></svg>